<?xml version="1.0" standalone="no"?>
<!DOCTYPE svg PUBLIC "-//W3C//DTD SVG 20010904//EN"
 "http://www.w3.org/TR/2001/REC-SVG-20010904/DTD/svg10.dtd">
<svg version="1.0" xmlns="http://www.w3.org/2000/svg"
 width="554.000000pt" height="454.000000pt" viewBox="0 0 554.000000 454.000000"
 preserveAspectRatio="xMidYMid meet">
<metadata>
Created by potrace 1.15, written by Peter Selinger 2001-2017
</metadata>
<g transform="translate(0.000000,454.000000) scale(0.100000,-0.100000)"
fill="#000000" stroke="none">
<path d="M3016 4532 c-2 -4 -76 -205 -164 -447 -88 -242 -164 -448 -167 -457
-7 -17 -80 -18 -1346 -18 l-1339 0 0 -545 0 -545 1140 0 c627 0 1140 -1 1140
-3 0 -1 -40 -113 -89 -247 l-89 -245 -1051 -3 -1051 -2 0 -545 0 -545 850 0
c468 0 850 -2 850 -4 0 -2 -45 -127 -100 -277 -54 -150 -98 -274 -96 -276 10
-10 1013 -369 1018 -364 4 3 79 204 166 446 88 242 163 448 167 458 7 16 80
17 1346 17 l1339 0 0 545 0 545 -1140 0 c-627 0 -1140 1 -1140 3 0 1 40 113
89 247 l89 245 1051 3 1051 2 0 545 0 545 -850 0 c-467 0 -850 2 -850 4 0 2
45 127 100 277 54 150 98 274 96 276 -1 1 -218 81 -482 177 -263 96 -491 179
-506 185 -15 6 -29 7 -32 3z"/>
</g>
</svg>
